<svg width="40" height="40" viewBox="0 0 40 40" fill="none" xmlns="http://www.w3.org/2000/svg">
<path d="M19.9998 2.9165C16.6211 2.9165 13.3182 3.91842 10.5089 5.79556C7.69951 7.67271 5.5099 10.3408 4.2169 13.4623C2.92391 16.5839 2.5856 20.0188 3.24476 23.3326C3.90393 26.6465 5.53096 29.6904 7.9201 32.0796C10.3093 34.4687 13.3532 36.0958 16.6671 36.7549C19.9809 37.4141 23.4158 37.0758 26.5374 35.7828C29.6589 34.4898 32.327 32.3002 34.2041 29.4908C36.0813 26.6815 37.0832 23.3786 37.0832 19.9998C37.0788 15.4704 35.2775 11.1278 32.0747 7.92497C28.8719 4.72218 24.5293 2.92092 19.9998 2.9165ZM18.3332 11.2498C18.3332 10.8078 18.5088 10.3839 18.8213 10.0713C19.1339 9.75877 19.5578 9.58317 19.9998 9.58317C20.4419 9.58317 20.8658 9.75877 21.1784 10.0713C21.4909 10.3839 21.6665 10.8078 21.6665 11.2498V21.7998C21.6665 22.2419 21.4909 22.6658 21.1784 22.9783C20.8658 23.2909 20.4419 23.4665 19.9998 23.4665C19.5578 23.4665 19.1339 23.2909 18.8213 22.9783C18.5088 22.6658 18.3332 22.2419 18.3332 21.7998V11.2498ZM19.9998 29.7165C19.5878 29.7165 19.185 29.5943 18.8424 29.3654C18.4998 29.1365 18.2328 28.8111 18.0751 28.4304C17.9174 28.0497 17.8762 27.6309 17.9565 27.2267C18.0369 26.8226 18.2353 26.4514 18.5267 26.16C18.8181 25.8687 19.1893 25.6703 19.5934 25.5899C19.9975 25.5095 20.4164 25.5507 20.7971 25.7084C21.1778 25.8661 21.5032 26.1331 21.7321 26.4757C21.961 26.8183 22.0832 27.2211 22.0832 27.6332C22.079 28.1698 21.8662 28.6838 21.4899 29.0664C21.1135 29.449 20.603 29.6702 20.0665 29.6832L19.9998 29.7165Z" fill="#DB0808"/>
</svg>
