<svg width="1202" height="142" viewBox="0 0 1202 142" fill="none" xmlns="http://www.w3.org/2000/svg">
<path d="M3.02222 46.7901L93.6048 139.228L181.978 46.7901L144.419 2.77197L93.6048 46.7901L47.2088 2.77197L3.02222 46.7901Z" stroke="#821404" stroke-width="3" stroke-linecap="round" stroke-dasharray="21.85 21.85"/>
<path d="M613.022 46.7901L703.605 139.228L791.978 46.7901L754.419 2.77197L703.605 46.7901L657.209 2.77197L613.022 46.7901Z" stroke="#821404" stroke-width="3" stroke-linecap="round" stroke-dasharray="21.85 21.85"/>
<path d="M308 46.8761L398.605 138.986L487 46.8761L449.432 3.0144L398.605 46.8761L352.198 3.0144L308 46.8761Z" fill="#F6ECDE" stroke="#080808" stroke-width="2.9837" stroke-linecap="round" stroke-dasharray="21.73 21.73"/>
<path d="M918 46.8761L1008.6 138.986L1097 46.8761L1059.43 3.0144L1008.6 46.8761L962.198 3.0144L918 46.8761Z" fill="#F6ECDE" stroke="#080808" stroke-width="2.9837" stroke-linecap="round" stroke-dasharray="21.73 21.73"/>
<path d="M205.378 47.0063L245.53 88.1378L284.703 47.0063L268.054 27.4199L245.53 47.0063L224.964 27.4199L205.378 47.0063Z" fill="#DFBB92" stroke="#080808" stroke-width="1.968" stroke-linecap="round" stroke-dasharray="9.79 9.79"/>
<path d="M510.378 45.0063L550.53 86.1378L589.703 45.0063L573.054 25.4199L550.53 45.0063L529.964 25.4199L510.378 45.0063Z" fill="#DFBB92" stroke="#080808" stroke-width="1.968" stroke-linecap="round" stroke-dasharray="9.79 9.79"/>
<path d="M1120.38 45.0063L1160.53 86.1378L1199.7 45.0063L1183.05 25.4199L1160.53 45.0063L1139.96 25.4199L1120.38 45.0063Z" fill="#DFBB92" stroke="#080808" stroke-width="1.968" stroke-linecap="round" stroke-dasharray="9.79 9.79"/>
<path d="M815.378 47.0063L855.53 88.1378L894.703 47.0063L878.054 27.4199L855.53 47.0063L834.964 27.4199L815.378 47.0063Z" fill="#DFBB92" stroke="#080808" stroke-width="1.968" stroke-linecap="round" stroke-dasharray="9.79 9.79"/>
</svg>
